<?xml version="1.0" standalone="no"?>
<!DOCTYPE svg PUBLIC "-//W3C//DTD SVG 20010904//EN"
 "http://www.w3.org/TR/2001/REC-SVG-20010904/DTD/svg10.dtd">
<svg version="1.0" xmlns="http://www.w3.org/2000/svg"
 width="640.000000pt" height="1280.000000pt" viewBox="0 0 640.000000 1280.000000"
 preserveAspectRatio="xMidYMid meet">
<metadata>
Created by potrace 1.15, written by Peter Selinger 2001-2017
</metadata>
<g transform="translate(0.000000,1280.000000) scale(0.100000,-0.100000)"
fill="#000000" stroke="none">
<path d="M3251 12790 c-473 -46 -869 -193 -1206 -448 -79 -60 -253 -230 -325
-317 -86 -105 -183 -259 -248 -392 l-57 -118 -3 -1833 -2 -1832 -458 0 -457 1
-3 -566 -2 -565 800 0 800 0 0 -3360 0 -3360 355 0 355 0 0 3360 0 3360 530 0
530 0 0 -2280 0 -2280 355 0 355 0 0 2280 0 2280 670 0 670 0 -2 556 -3 556
-65 2 c-36 1 -138 3 -227 4 l-163 2 -2 1803 -3 1802 -51 117 c-202 464 -543
831 -959 1033 -182 89 -364 145 -590 181 -110 18 -465 26 -594 14z"/>
</g>
</svg>
