<!DOCTYPE svg PUBLIC "-//W3C//DTD SVG 1.1//EN" "http://www.w3.org/Graphics/SVG/1.1/DTD/svg11.dtd">
<!-- Uploaded to: SVG Repo, www.svgrepo.com, Transformed by: SVG Repo Mixer Tools -->
<svg height="800px" width="800px" version="1.1" id="Capa_1" xmlns="http://www.w3.org/2000/svg" xmlns:xlink="http://www.w3.org/1999/xlink" viewBox="0 0 197.023 197.023" xml:space="preserve" fill="#176FF2" stroke="#176FF2" stroke-width="0.394046">
<g id="SVGRepo_bgCarrier" stroke-width="0"/>
<g id="SVGRepo_tracerCarrier" stroke-linecap="round" stroke-linejoin="round"/>
<g id="SVGRepo_iconCarrier"> <g> <path style="fill:;" d="M135.749,73.531V37.234C135.749,16.702,119.04,0,98.508,0C77.983,0,61.281,16.702,61.281,37.234 v36.297H46.06v20.285h18.435v46.428h3.271l1.335,56.778h8.017l1.338-56.778h3.4V93.816h34.464v46.428h3.264l1.338,56.778h8.02 l1.331-56.778h3.4V93.816h17.289V73.531H135.749z M129.096,93.816v41.844h-3.285l-0.88,37.195l-0.873-37.195h-3.153V93.816H129.096 z M77.275,93.816v41.844h-3.293l-0.87,37.195l-0.88-37.195h-3.157V93.816H77.275z M98.511,4.577 c18.012,0,32.661,14.645,32.661,32.657v40.878h15.214v11.127H50.644V78.112h15.221V37.234C65.862,19.222,80.513,4.577,98.511,4.577 z"/> </g> </g>
</svg>