<?xml version="1.0" ?><svg height="64" id="svg8" version="1.1" viewBox="0 0 16.933333 16.933333" width="64" xmlns="http://www.w3.org/2000/svg" xmlns:cc="http://creativecommons.org/ns#" xmlns:dc="http://purl.org/dc/elements/1.1/" xmlns:inkscape="http://www.inkscape.org/namespaces/inkscape" xmlns:rdf="http://www.w3.org/1999/02/22-rdf-syntax-ns#" xmlns:sodipodi="http://sodipodi.sourceforge.net/DTD/sodipodi-0.dtd" xmlns:svg="http://www.w3.org/2000/svg"><defs id="defs2"/><g id="layer1"/><g id="g954"><path d="M 30.996094 2.9960938 L 30.996094 22.5 L 28.501953 22.5 C 27.13425 22.5 25.998047 23.63425 25.998047 25.001953 L 25.998047 38.998047 C 25.998047 40.365752 27.134251 41.501953 28.501953 41.501953 L 30.996094 41.501953 L 30.996094 60.996094 L 32.996094 60.996094 L 32.996094 41.501953 L 35.5 41.501953 C 36.867703 41.501953 38.001953 40.365752 38.001953 38.998047 L 38.001953 25.001953 C 38.001953 23.63425 36.867703 22.5 35.5 22.5 L 32.996094 22.5 L 32.996094 2.9960938 L 30.996094 2.9960938 z M 28.501953 24.5 L 35.5 24.5 C 35.794297 24.5 36.001953 24.707656 36.001953 25.001953 L 28 25.001953 C 28 24.707656 28.207656 24.5 28.501953 24.5 z M 28 27.003906 L 36.001953 27.003906 L 36.001953 38.998047 C 36.001953 39.292347 35.794298 39.5 35.5 39.5 L 28.501953 39.5 C 28.207655 39.5 28 39.292347 28 38.998047 L 28 27.003906 z " id="path959" style="color:#000000;font-style:normal;font-variant:normal;font-weight:normal;font-stretch:normal;font-size:medium;line-height:normal;font-family:sans-serif;font-variant-ligatures:normal;font-variant-position:normal;font-variant-caps:normal;font-variant-numeric:normal;font-variant-alternates:normal;font-variant-east-asian:normal;font-feature-settings:normal;font-variation-settings:normal;text-indent:0;text-align:start;text-decoration:none;text-decoration-line:none;text-decoration-style:solid;text-decoration-color:#000000;letter-spacing:normal;word-spacing:normal;text-transform:none;writing-mode:lr-tb;direction:ltr;text-orientation:mixed;dominant-baseline:auto;baseline-shift:baseline;text-anchor:start;white-space:normal;shape-padding:0;shape-margin:0;inline-size:0;clip-rule:nonzero;display:inline;overflow:visible;visibility:visible;opacity:1;isolation:auto;mix-blend-mode:normal;color-interpolation:sRGB;color-interpolation-filters:linearRGB;solid-color:#000000;solid-opacity:1;vector-effect:none;fill:#000000;fill-opacity:1;fill-rule:evenodd;stroke:none;stroke-width:2;stroke-linecap:butt;stroke-linejoin:miter;stroke-miterlimit:4;stroke-dasharray:none;stroke-dashoffset:0;stroke-opacity:1;color-rendering:auto;image-rendering:auto;shape-rendering:auto;text-rendering:auto;enable-background:accumulate;stop-color:#000000;stop-opacity:1" transform="scale(0.26458333)"/></g></svg>